<svg id="rings" xmlns="http://www.w3.org/2000/svg" viewBox="0 0 1233.69 770.64"><title>contact-rings-4</title><path id="ring_4" d="M177.88,81.5c205-94.83,538.61-93.28,778.8,53.65C1180.38,272,1273,427.09,1182.21,554.33c-84.56,118.53-207.92,203-492.94,202.37-97.09-.2-438.41-50.42-587-214.34C-79.06,342.28,57.61,137.13,177.88,81.5Z" transform="translate(-4.53 -4.77)" fill="none" stroke="#ebebeb" stroke-width="4" opacity="0.4" style="isolation:isolate"/><path id="ring_3" d="M191.56,139.53C396.56,44.7,733.49-69.93,973.68,77c223.7,136.84,179.78,304.71,120.09,382.43C1005.08,574.9,861.2,654.93,734.2,713.28c-72.14,33.14-494.34,89.49-642.92-74.42C-90.07,438.78,71.29,195.16,191.56,139.53Z" transform="translate(-4.53 -4.77)" fill="none" stroke="#ebebeb" stroke-width="4" opacity="0.4" style="isolation:isolate"/><path id="ring_2" d="M187.69,101.11C404.19-72.84,862.29,27,1093.52,186.28c161,110.9,149.48,328.9,49.1,440.13-76,84.19-186.61,98.11-235.73,109.85C623.57,804,354.9,718.05,137,502.91-55.11,313.17,110.55,163.1,187.69,101.11Z" transform="translate(-4.53 -4.77)" fill="none" stroke="#ebebeb" stroke-width="4" opacity="0.4" style="isolation:isolate"/><path id="ring_1" d="M256.43,139.32C549.48,19.89,828.75-37.51,1068,109.46c175.44,105.71,209.25,279.89,122,455.2-51.88,100.85-143.44,160.25-218.6,180.3C694.51,835.5-4.1,708,6.65,389.83,28.42,294.11,164.78,176.66,256.43,139.32Z" transform="translate(-4.53 -4.77)" fill="none" stroke="#ebebeb" stroke-width="4" opacity="0.4" style="isolation:isolate"/></svg>